<?xml version="1.0" encoding="UTF-8"?> <svg xmlns="http://www.w3.org/2000/svg" width="195.528" height="59.42" viewBox="0 0 195.528 59.42"><g id="deventer-logo" transform="translate(-140.218 -47)"><g id="Group_4" data-name="Group 4" transform="translate(140.218 47)"><g id="Group_1" data-name="Group 1" transform="translate(107.109 29.931)"><path id="Path_1" data-name="Path 1" d="M599.279,446.292c3.06-.021,3.66-1.578,3.683-4.174v-7.383h-1.72v.636l-.533-.189a2.1,2.1,0,0,0-1.6-.712c-1.8,0-3.206,1.536-3.211,3.948,0,2.224,1.326,3.944,3.155,3.947a3.891,3.891,0,0,0,2.021-.742l.168-.1v.968a2.865,2.865,0,0,1-.5,2.035,1.966,1.966,0,0,1-1.5.42,3.154,3.154,0,0,1-2.3-.984l-.7,1.355a6.1,6.1,0,0,0,3.039.972m-1.134-5.973a3.786,3.786,0,0,1-.375-1.864,3.893,3.893,0,0,1,.4-1.953,1.3,1.3,0,0,1,1.164-.689,3.679,3.679,0,0,1,1.853.66l-.062.094.062-.094.052.032v3.671l-.047.035a3.734,3.734,0,0,1-1.841.812h-.007a1.326,1.326,0,0,1-1.2-.7" transform="translate(-595.897 -432.146)" fill="#161615"></path><path id="Path_2" data-name="Path 2" d="M617.511,438.531c.011,2.471,1.321,4.09,3.854,4.1a5.973,5.973,0,0,0,3.133-.931l-.769-1.406a3.555,3.555,0,0,1-2.384.994c-1.111.01-1.82-.71-1.944-2.006l-.012-.125h5.562c-.033-1.667-.008-2.814-.983-3.733a3.7,3.7,0,0,0-2.6-.951,3.791,3.791,0,0,0-3.854,4.061m5.627-.8.009.119H619.39l.011-.123a1.871,1.871,0,0,1,1.944-1.914c1.227-.013,1.732.765,1.793,1.917" transform="translate(-608.757 -432.146)" fill="#161615"></path><path id="Path_3" data-name="Path 3" d="M649.4,436.414a4.189,4.189,0,0,1,.146,1.386c0,.119,0,.245,0,.374v4.192h1.72v-4.325a9.5,9.5,0,0,0-.111-1.769,2.32,2.32,0,0,0-2.42-1.8,4.459,4.459,0,0,0-2.579.94l-.091.066-.065-.091a2.092,2.092,0,0,0-1.891-.914,3.4,3.4,0,0,0-2.327.918l-.183.15v-.8h-2.834v1.1h.359a.83.83,0,0,1,.636.2.89.89,0,0,1,.175.633v5.7h1.721v-5.782l.051-.034a3.756,3.756,0,0,1,1.949-.735.9.9,0,0,1,.94.6,4.065,4.065,0,0,1,.136,1.335v4.614h1.718v-5.785l.054-.033a3.913,3.913,0,0,1,1.967-.734h.023a.89.89,0,0,1,.908.6" transform="translate(-621.403 -432.148)" fill="#161615"></path><path id="Path_4" data-name="Path 4" d="M673.5,438.533c.012,2.471,1.323,4.09,3.854,4.1a5.985,5.985,0,0,0,3.137-.931l-.768-1.406a3.574,3.574,0,0,1-2.388.994c-1.111.01-1.82-.709-1.946-2.008l-.01-.124h5.566c-.034-1.667-.008-2.814-.984-3.733a3.7,3.7,0,0,0-2.607-.95,3.789,3.789,0,0,0-3.854,4.059m5.63-.8.008.12h-3.76l.01-.123a1.874,1.874,0,0,1,1.946-1.914c1.228-.015,1.735.765,1.8,1.917" transform="translate(-642.073 -432.148)" fill="#161615"></path><path id="Path_5" data-name="Path 5" d="M695.769,438.533c.01,2.471,1.322,4.09,3.854,4.1a5.975,5.975,0,0,0,3.133-.931l-.769-1.407a3.556,3.556,0,0,1-2.382,1c-1.111.01-1.823-.709-1.946-2.008l-.014-.124h5.566c-.034-1.667-.01-2.814-.984-3.733a3.69,3.69,0,0,0-2.6-.95,3.787,3.787,0,0,0-3.854,4.059m1.876-.68.014-.123a1.873,1.873,0,0,1,1.946-1.914c1.225-.013,1.733.765,1.792,1.917l-.112.008v0l.112-.008.007.12Z" transform="translate(-655.321 -432.148)" fill="#161615"></path><path id="Path_6" data-name="Path 6" d="M722.836,436.343a3.691,3.691,0,0,1,.147,1.351v4.672H724.7v-4.419c0-1.648-.111-2.5-1.134-3.112a2.362,2.362,0,0,0-1.4-.361,3.482,3.482,0,0,0-2.288.917l-.182.15V435.3c0-.119.012-.352.016-.567h-2.833v1.1h.362a.817.817,0,0,1,.645.213.925.925,0,0,1,.166.617v5.7h1.719v-5.779l.047-.034a3.762,3.762,0,0,1,2.05-.739h.024a.913.913,0,0,1,.941.529" transform="translate(-667.883 -432.148)" fill="#161615"></path><path id="Path_7" data-name="Path 7" d="M739.822,432.511h.925v3.944a3.973,3.973,0,0,0,.348,2.041c.287.454.8.714,1.824.717a5.373,5.373,0,0,0,2.615-.681l-.569-1.431a2.8,2.8,0,0,1-1.725.77.587.587,0,0,1-.593-.343,3.484,3.484,0,0,1-.179-1.392v-3.625h2.569V431.32h-2.569v-2.589l-1.721,1.286v1.3h-.925Z" transform="translate(-681.532 -428.731)" fill="#161615"></path><path id="Path_8" data-name="Path 8" d="M756.219,438.531c.013,2.471,1.323,4.09,3.855,4.1a5.991,5.991,0,0,0,3.133-.931l-.77-1.406a3.547,3.547,0,0,1-2.383.994c-1.111.01-1.82-.709-1.944-2.006l-.014-.125h5.562c-.031-1.667-.009-2.814-.982-3.733a3.708,3.708,0,0,0-2.6-.951,3.793,3.793,0,0,0-3.855,4.061m1.878-.681.013-.123a1.871,1.871,0,0,1,1.944-1.914c1.226-.015,1.731.764,1.791,1.917l-.111.009v0l.111-.009.009.12Z" transform="translate(-691.288 -432.146)" fill="#161615"></path></g><path id="Path_9" data-name="Path 9" d="M555.815,457.989h6.873c3.286,0,5.66.249,7.537,2.208a8.849,8.849,0,0,1,2.292,6.294c0,3.588-1.38,6.293-3.755,7.647a11.241,11.241,0,0,1-5.687,1.1H557.83V461c0-.773-.221-1.076-1.077-1.076h-.939Zm5.052,14.824h1.959c2.015,0,3.533,0,4.8-1.326a7.175,7.175,0,0,0,1.684-5.079,6.155,6.155,0,0,0-1.656-4.583c-1.381-1.352-2.843-1.408-4.942-1.408h-1.849Z" transform="translate(-464.94 -416.209)" fill="#161615"></path><path id="Path_10" data-name="Path 10" d="M611.64,482.073a9.073,9.073,0,0,1-4.8,1.463c-3.781,0-5.8-2.485-5.8-6.156,0-3.755,2.567-6.1,5.8-6.1a5.578,5.578,0,0,1,3.922,1.435c1.517,1.436,1.435,3.23,1.49,5.743h-8.116c.193,1.848,1.132,2.788,2.677,2.788a5.2,5.2,0,0,0,3.534-1.547Zm-2.375-5.852c-.11-1.655-.744-2.65-2.456-2.65a2.568,2.568,0,0,0-2.677,2.65Z" transform="translate(-491.848 -424.116)" fill="#161615"></path><path id="Path_11" data-name="Path 11" d="M632,474.167v-1.932h4.057l2.705,7.481,3.008-7.481h2.622l-4.858,11.483h-2.18l-3.12-8.171c-.469-1.214-.635-1.379-1.463-1.379Z" transform="translate(-510.267 -424.685)" fill="#161615"></path><path id="Path_12" data-name="Path 12" d="M675.653,482.073a9.063,9.063,0,0,1-4.8,1.463c-3.784,0-5.8-2.485-5.8-6.156,0-3.755,2.567-6.1,5.8-6.1a5.571,5.571,0,0,1,3.919,1.435c1.518,1.436,1.435,3.23,1.492,5.743h-8.116c.192,1.848,1.131,2.788,2.677,2.788a5.2,5.2,0,0,0,3.533-1.547Zm-2.374-5.852c-.111-1.655-.746-2.65-2.456-2.65a2.569,2.569,0,0,0-2.677,2.65Z" transform="translate(-529.935 -424.116)" fill="#161615"></path><path id="Path_13" data-name="Path 13" d="M702.777,483.149h-2.845v-8.5c0-.718-.193-1.049-1.021-1.049h-.692v-1.932h4.475c0,.358-.028.8-.028.994a5.273,5.273,0,0,1,3.452-1.381,3.616,3.616,0,0,1,2.126.554c1.571.938,1.739,2.289,1.739,4.692v6.625h-2.844v-6.625c0-1.878.055-2.954-1.464-2.954a5.334,5.334,0,0,0-2.9,1.049Z" transform="translate(-549.67 -424.116)" fill="#161615"></path><path id="Path_14" data-name="Path 14" d="M734.5,466.435v-1.822l2.845-2.126v3.948h3.753v2.071H737.34v5.134c0,2.071.33,2.374.966,2.374,1.076,0,1.628-.552,2.6-1.215l.966,2.43a8.291,8.291,0,0,1-4.03,1.076c-3.036,0-3.341-1.6-3.341-4.2v-5.6h-1.351v-2.071Z" transform="translate(-570.45 -418.885)" fill="#161615"></path><path id="Path_15" data-name="Path 15" d="M768.634,482.073a9.067,9.067,0,0,1-4.8,1.463c-3.782,0-5.8-2.485-5.8-6.156,0-3.755,2.566-6.1,5.8-6.1a5.567,5.567,0,0,1,3.919,1.435c1.519,1.436,1.437,3.23,1.491,5.743h-8.114c.194,1.848,1.131,2.788,2.677,2.788a5.19,5.19,0,0,0,3.532-1.547Zm-2.373-5.852c-.112-1.655-.747-2.65-2.458-2.65a2.568,2.568,0,0,0-2.677,2.65Z" transform="translate(-585.26 -424.116)" fill="#161615"></path><path id="Path_16" data-name="Path 16" d="M795.665,483.149h-2.844v-8.64c0-.828-.468-.911-1.185-.911h-.525v-1.932h4.554v2.042l.028-.11c.387-.718,1.186-2.32,2.732-2.32.911,0,1.215.415,2.042.828l-1.021,2.568a4.906,4.906,0,0,0-1.546-.856c-.8,0-1.215,1.3-2.236,3.367Z" transform="translate(-604.94 -424.116)" fill="#161615"></path><g id="Group_3" data-name="Group 3" transform="translate(0 0)"><g id="Group_2" data-name="Group 2"><path id="Path_17" data-name="Path 17" d="M515.873,370.652c-1.422-.808-9.279-3.781-10.767-4.21a83.338,83.338,0,0,0-12.521-.807l-.022-.112c-1.571-6.661-6.749-9.481-10.906-10.383a19.911,19.911,0,0,0-8.462.3c.355-.018,11.355-.451,12.856,12.666a41.654,41.654,0,0,1,.013,8.468l6.744-2.166a26.537,26.537,0,0,0,.282-3.226A80.6,80.6,0,0,1,515.873,370.652Z" transform="translate(-415.782 -354.829)" fill="#0065a2"></path><path id="Path_18" data-name="Path 18" d="M331.433,401.5c.651-.379,20.81-12.3,53.982-15.531l8.746,6.724a127.808,127.808,0,0,0-44.908,20.494S339.466,407.446,331.433,401.5Z" transform="translate(-331.433 -373.357)" fill="#0065a2"></path><path id="Path_19" data-name="Path 19" d="M478.388,378.162s-.663-.466-1.319-.846-1.392-.726-1.392-.726l-6.076.654,9.36,6.854c-.011-.9-.039-2.136-.111-3.308A10.812,10.812,0,0,0,478.388,378.162Z" transform="translate(-413.643 -367.777)" fill="#0065a2"></path></g><path id="Path_20" data-name="Path 20" d="M469.034,399.653l3.112,1.712c5.015-1.317,10.811-1.787,17.523-2a101.441,101.441,0,0,0-14.745,3.427l2.929,1.716a69.634,69.634,0,0,1,13.553-3.293s-7.341,2.856-11.082,4.817l9.669,6.48,5.586-14.479C492.578,397.345,482.444,395.956,469.034,399.653ZM449,424.456c2.05-2.967,6.533-6.789,10.416-9.823l-3.3-2.531c-3.387,2.213-8.606,5.2-12.255,8.2a43.209,43.209,0,0,1,20.84-16.579l-2.41-1.94c-8.453,3.134-19.452,9.964-29.055,18.266,6.23,5.551,14.216,10.052,19.648,13.313a138.133,138.133,0,0,1,14.276-13.23l-5.545-3.811C456.128,419.64,450.574,423.108,449,424.456Z" transform="translate(-392.006 -380.037)" fill="#0065a2"></path></g></g></g></svg> 