<?xml version="1.0" encoding="UTF-8"?> <svg xmlns="http://www.w3.org/2000/svg" width="159" height="60" viewBox="0 0 159 60" fill="none"><path d="M2.45166 50.8262C3.16319 50.6949 3.88555 50.6313 4.60907 50.6361C5.79023 50.6361 6.55036 50.8373 7.12045 51.2994C7.36537 51.4893 7.56096 51.7354 7.69067 52.0169C7.82039 52.2983 7.88041 52.6069 7.86567 52.9165C7.85001 53.3708 7.69244 53.8088 7.4151 54.1691C7.13777 54.5293 6.75458 54.7936 6.31934 54.9249V54.9509C6.8488 55.0586 7.32512 55.3451 7.6684 55.7624C8.01168 56.1796 8.20105 56.7022 8.20474 57.2425C8.21264 57.5847 8.14913 57.9248 8.01825 58.2411C7.88738 58.5573 7.69201 58.8429 7.44462 59.0794C6.80746 59.6644 5.77533 59.9364 4.2849 59.9364C3.67198 59.9411 3.05947 59.9038 2.45166 59.8247V50.8262ZM3.65146 54.5709H4.72457C5.97281 54.5709 6.70313 53.9188 6.70313 53.0357C6.70313 51.9663 5.89084 51.5453 4.69477 51.5453C4.34509 51.5363 3.99543 51.5637 3.65146 51.6273V54.5709ZM3.65146 58.9528C3.97983 58.9977 4.31126 59.0163 4.6426 59.0086C5.86476 59.0086 6.99004 58.5615 6.99004 57.2313C6.99004 55.9831 5.91692 55.4651 4.6277 55.4651H3.65146V58.9528Z" fill="#1E9CD8"></path><path d="M13.8126 51.4372C13.8126 51.6349 13.7341 51.8244 13.5943 51.9642C13.4546 52.1039 13.265 52.1824 13.0674 52.1824C12.8697 52.1824 12.6802 52.1039 12.5404 51.9642C12.4007 51.8244 12.3221 51.6349 12.3221 51.4372C12.3221 51.2396 12.4007 51.05 12.5404 50.9103C12.6802 50.7705 12.8697 50.692 13.0674 50.692C13.1665 50.6872 13.2655 50.7032 13.3581 50.7389C13.4507 50.7747 13.5348 50.8294 13.605 50.8996C13.6751 50.9698 13.7299 51.0539 13.7656 51.1465C13.8014 51.239 13.8174 51.3381 13.8126 51.4372ZM12.4824 59.8507V53.2816H13.6747V59.8507H12.4824Z" fill="#1E9CD8"></path><path d="M19.0365 56.784C19.0626 58.3974 20.0948 59.0644 21.2908 59.0644C21.9147 59.0845 22.5354 58.9675 23.1092 58.7216L23.3104 59.5786C22.6192 59.8661 21.8752 60.0044 21.1269 59.9847C19.1036 59.9847 17.8964 58.6545 17.8964 56.676C17.8964 54.6974 19.0626 53.1176 20.9778 53.1176C23.1203 53.1176 23.6904 55.003 23.6904 56.2102C23.689 56.3972 23.6753 56.5839 23.6494 56.7691L19.0365 56.784ZM22.5391 55.927C22.5391 55.1818 22.2261 53.9857 20.881 53.9857C19.6737 53.9857 19.1446 55.1036 19.0515 55.927H22.5391Z" fill="#1E9CD8"></path><path d="M33.5571 50.215V58.1553C33.5571 58.7365 33.5571 59.4035 33.613 59.8506H32.5399L32.484 58.7067H32.4579C32.2443 59.1102 31.9212 59.4453 31.5258 59.6733C31.1303 59.9014 30.6785 60.0132 30.2223 59.9959C28.6349 59.9959 27.4128 58.6508 27.4128 56.6425C27.4128 54.4553 28.7579 53.1139 30.3601 53.1139C30.7517 53.091 31.1422 53.1737 31.4908 53.3533C31.8395 53.5329 32.1336 53.8028 32.3424 54.1348H32.3722V50.215H33.5571ZM32.3648 55.9531C32.3664 55.7851 32.3477 55.6174 32.3089 55.4538C32.2243 55.0605 32.0071 54.7081 31.6937 54.4558C31.3803 54.2034 30.9898 54.0664 30.5874 54.0677C29.3503 54.0677 28.6163 55.1558 28.6163 56.6052C28.6163 57.9354 29.2684 59.0346 30.5576 59.0346C30.9682 59.0333 31.366 58.8913 31.6847 58.6323C32.0034 58.3733 32.2237 58.013 32.3089 57.6112C32.3491 57.4416 32.3679 57.2676 32.3648 57.0933V55.9531Z" fill="#1E9CD8"></path><path d="M39.694 51.3961V53.2815H41.4005V54.1907H39.694V57.7342C39.694 58.5465 39.9213 59.0085 40.5882 59.0085C40.8219 59.012 41.0549 58.9844 41.2813 58.9265L41.3335 59.8208C40.9941 59.9412 40.6351 59.9968 40.2753 59.9847C40.0368 59.9992 39.798 59.9617 39.5754 59.8749C39.3528 59.788 39.1517 59.6539 38.986 59.4817C38.647 59.1315 38.524 58.5465 38.524 57.7752V54.1907H37.5068V53.2815H38.524V51.7054L39.694 51.3961Z" fill="#1E9CD8"></path><path d="M56.5619 58.0585C56.5619 58.7366 56.5619 59.3328 56.6178 59.8507H55.5596L55.4926 58.7776H55.4441C55.2238 59.1556 54.9067 59.468 54.5256 59.6828C54.1444 59.8976 53.713 60.007 53.2755 59.9998C52.2434 59.9998 51.0063 59.4297 51.0063 57.1232V53.2816H52.2024V56.9183C52.2024 58.1665 52.575 59.0086 53.6668 59.0086C54.0069 59.0026 54.3378 58.8965 54.6181 58.7037C54.8983 58.5109 55.1157 58.2398 55.2429 57.9243C55.3144 57.7285 55.351 57.5217 55.351 57.3132V53.2816H56.5619V58.0585Z" fill="#1E9CD8"></path><path d="M62.5759 51.4372C62.5759 51.6349 62.4974 51.8244 62.3576 51.9642C62.2179 52.1039 62.0283 52.1824 61.8307 52.1824C61.633 52.1824 61.4435 52.1039 61.3037 51.9642C61.164 51.8244 61.0854 51.6349 61.0854 51.4372C61.0854 51.2396 61.164 51.05 61.3037 50.9103C61.4435 50.7705 61.633 50.692 61.8307 50.692C61.9298 50.6872 62.0288 50.7032 62.1214 50.7389C62.214 50.7747 62.2981 50.8294 62.3683 50.8996C62.4384 50.9698 62.4932 51.0539 62.5289 51.1465C62.5647 51.239 62.5807 51.3381 62.5759 51.4372ZM61.2457 59.8507V53.2816H62.438V59.8507H61.2457Z" fill="#1E9CD8"></path><path d="M68.5711 51.3961V53.2815H70.2814V54.1907H68.5711V57.7342C68.5711 58.5465 68.8021 59.0085 69.4691 59.0085C69.7027 59.012 69.9358 58.9844 70.1622 58.9265L70.2143 59.8208C69.875 59.9412 69.516 59.9968 69.1561 59.9847C68.9176 59.9992 68.6788 59.9617 68.4562 59.8749C68.2337 59.788 68.0326 59.6539 67.8669 59.4817C67.5278 59.1315 67.4049 58.5465 67.4049 57.7752V54.1907H66.3876V53.2815H67.4049V51.7054L68.5711 51.3961Z" fill="#1E9CD8"></path><path d="M75.5203 56.2959H75.565C75.7252 56.0649 75.9376 55.778 76.1463 55.5507L78.0726 53.2853H79.5146L76.9734 55.9867L79.8649 59.8544H78.4117L76.1463 56.7058L75.5352 57.384V59.8544H74.3577V50.215H75.5352L75.5203 56.2959Z" fill="#1E9CD8"></path><path d="M89.3515 56.512C89.3515 58.9414 87.6673 59.9996 86.08 59.9996C84.3027 59.9996 82.9315 58.6955 82.9315 56.6201C82.9315 54.4217 84.3697 53.1324 86.1881 53.1324C88.0884 53.1175 89.3515 54.5036 89.3515 56.512ZM84.135 56.5791C84.135 58.0173 84.9622 59.1054 86.1284 59.1054C87.2947 59.1054 88.1256 58.0323 88.1256 56.553C88.1256 55.4352 87.5667 54.0267 86.1582 54.0267C84.7498 54.0267 84.1536 55.3308 84.1536 56.5791H84.135Z" fill="#1E9CD8"></path><path d="M93.5844 55.0589C93.5844 54.3808 93.5844 53.8256 93.5322 53.2816H94.5681L94.624 54.3398H94.665C94.8616 53.9664 95.1588 53.6554 95.5229 53.442C95.887 53.2287 96.3036 53.1215 96.7255 53.1325C97.1351 53.1272 97.5359 53.2515 97.8705 53.4878C98.2051 53.724 98.4565 54.0601 98.5885 54.4479H98.6183C98.8034 54.1138 99.0574 53.8229 99.3636 53.5946C99.7788 53.275 100.293 53.1115 100.817 53.1325C101.685 53.1325 102.974 53.7026 102.974 55.983V59.8507H101.797V56.1246C101.797 54.8615 101.335 54.1013 100.373 54.1013C100.055 54.114 99.7479 54.225 99.495 54.4192C99.2421 54.6133 99.0556 54.8811 98.9611 55.1856C98.8973 55.3792 98.8646 55.5817 98.8643 55.7855V59.8432H97.698V55.9159C97.698 54.8689 97.236 54.1088 96.3268 54.1088C95.9842 54.1262 95.6558 54.2511 95.3882 54.4659C95.1207 54.6806 94.9276 54.9741 94.8364 55.3049C94.7708 55.4915 94.7393 55.6884 94.7432 55.8861V59.8507H93.5732L93.5844 55.0589Z" fill="#1E9CD8"></path><path d="M107.457 58.6285C107.93 58.9253 108.474 59.09 109.033 59.1055C109.901 59.1055 110.307 58.6695 110.307 58.1255C110.307 57.5815 109.968 57.2424 109.085 56.9182C107.904 56.4972 107.349 55.8451 107.349 55.0552C107.349 53.997 108.202 53.1288 109.614 53.1288C110.179 53.1236 110.736 53.2634 111.231 53.5349L110.929 54.4031C110.525 54.1577 110.061 54.0288 109.588 54.0305C108.88 54.0305 108.489 54.4404 108.489 54.9285C108.489 55.4166 108.88 55.7147 109.737 56.0463C110.877 56.4823 111.462 57.0524 111.462 58.0286C111.462 59.1837 110.564 59.996 109.003 59.996C108.36 60.0086 107.724 59.8546 107.159 59.5489L107.457 58.6285Z" fill="#1E9CD8"></path><path d="M117.148 51.3961V53.2815H118.858V54.1907H117.148V57.7342C117.148 58.5465 117.379 59.0085 118.042 59.0085C118.276 59.012 118.509 58.9844 118.735 58.9265L118.788 59.8245C118.448 59.9449 118.089 60.0005 117.729 59.9885C117.491 60.0029 117.252 59.9654 117.03 59.8786C116.807 59.7917 116.606 59.6576 116.44 59.4855C116.101 59.1352 115.978 58.5502 115.978 57.7789V54.1944H114.961V53.2852H115.978V51.7091L117.148 51.3961Z" fill="#1E9CD8"></path><path d="M130.339 19.6759C129.454 18.0762 128.57 16.4777 127.686 14.8805C127.242 14.0756 128.397 12.4473 128.211 11.4748C127.853 9.57452 127.494 7.67421 127.134 5.77391C126.862 4.34682 126.761 3.39667 125.953 2.21922L124.645 0.307739H111.645V44.6482L113.769 40.5495L114.775 38.6194C114.905 38.3697 115.639 38.5076 115.892 38.5039L122.026 38.4331C123.453 38.4331 124.436 37.4233 125.625 36.6557C126.992 35.7726 126.806 34.2375 126.743 32.8365C126.72 32.1844 126.113 31.9795 126.344 31.2902C126.463 30.9175 126.471 30.6903 126.791 30.4965C127.324 30.1798 127.492 30.2394 127.339 29.647C127.298 29.4756 127.004 28.7303 127.156 28.626C127.391 28.4732 128.054 28.1938 128.17 27.9479C128.427 27.415 128.107 26.0848 128.088 25.4775C128.058 24.6987 131.199 24.4528 131.508 23.4579C131.687 22.8916 131.937 22.5674 131.658 22.0569L130.339 19.6759Z" fill="#231F20"></path><path d="M143.38 22.0606C143.298 20.8459 142.825 20.4025 142.385 19.6052C141.502 18.0067 140.291 16.479 139.404 14.8805C139.216 14.5181 139.049 14.1448 138.905 13.7627C138.879 12.8684 138.879 12.7305 139.479 12.0151C140.324 11.0165 141.286 9.80927 140.425 8.47534C139.743 7.4134 138.704 6.26204 138.249 5.03243C138.201 4.84613 138.148 4.65982 138.092 4.50705C138.092 4.48469 138.092 4.46234 138.092 4.43626C137.768 2.79678 136.93 1.57089 136.464 0.292847H124.641L125.949 2.20433C126.758 3.38177 126.858 4.33193 127.13 5.75902C127.488 7.65932 127.847 9.55963 128.207 11.4599C128.393 12.4324 127.238 14.0682 127.682 14.8656C128.569 16.4628 129.453 18.0613 130.335 19.661L131.658 22.0457C131.937 22.5562 131.687 22.8804 131.508 23.4468C131.199 24.4416 128.058 24.6875 128.088 25.4663C128.107 26.0736 128.427 27.4039 128.17 27.9367C128.054 28.1826 127.391 28.4621 127.156 28.6148C127.004 28.7192 127.298 29.4644 127.339 29.6358C127.492 30.2282 127.339 30.1686 126.791 30.4853C126.471 30.6791 126.463 30.9176 126.344 31.279C126.113 31.9683 126.717 32.1733 126.743 32.8253C126.802 34.2263 126.989 35.7615 125.625 36.6446C124.436 37.4121 123.453 38.4033 122.026 38.4219L115.892 38.4927C115.643 38.4927 114.909 38.3586 114.775 38.6082L113.769 40.5383L111.645 44.637V44.9463H123.196L125.48 40.5495C125.811 39.9049 126.147 39.264 126.482 38.6194C126.616 38.3697 127.35 38.5076 127.6 38.5039L133.729 38.4331C135.156 38.4331 136.144 37.4233 137.332 36.6557C138.7 35.7727 138.51 34.2375 138.45 32.8365C138.424 32.1844 137.82 31.9795 138.052 31.2902C138.171 30.9176 138.174 30.6903 138.495 30.4965C139.028 30.1798 139.195 30.2394 139.046 29.647C139.005 29.4756 138.707 28.7303 138.864 28.626C139.095 28.4732 139.758 28.1938 139.877 27.9479C140.131 27.415 139.814 26.0848 139.792 25.4775C139.765 24.6987 142.948 24.2404 143.22 23.4579C143.383 23.0101 143.432 22.5284 143.361 22.0569" fill="white"></path><path d="M155.203 22.0606C154.734 21.3049 154.225 20.5748 153.679 19.8734C152.498 18.1966 151.816 16.7546 150.947 15.1561C150.876 15.0283 150.836 14.8852 150.832 14.7388C151.421 14.4407 151.622 13.7775 151.752 13.58C151.543 13.7503 151.275 13.8307 151.007 13.8036C151.242 13.0584 151.652 12.2014 151.752 11.4636C152.125 8.93358 151.458 5.79249 149.491 2.20799C149.092 1.54715 148.656 0.909003 148.186 0.296509H136.442C136.908 1.57456 137.746 2.80044 138.07 4.43992C138.07 4.466 138.07 4.48836 138.07 4.51071C138.126 4.67839 138.178 4.84979 138.227 5.03609C138.681 6.2657 139.717 7.41706 140.403 8.479C141.263 9.81294 140.302 11.0202 139.456 12.0188C138.871 12.7454 138.871 12.8758 138.909 13.7775C139.053 14.1596 139.219 14.5329 139.408 14.8953C140.291 16.4938 141.502 18.0215 142.389 19.62C142.828 20.4174 143.302 20.8608 143.384 22.0755C143.454 22.547 143.406 23.0287 143.242 23.4765C142.97 24.259 139.788 24.7173 139.814 25.496C139.836 26.1034 140.153 27.4336 139.9 27.9664C139.78 28.2124 139.117 28.4918 138.886 28.6446C138.73 28.7489 139.028 29.4941 139.069 29.6655C139.218 30.258 139.05 30.1984 138.517 30.5151C138.197 30.7088 138.193 30.9473 138.074 31.3087C137.843 31.9981 138.446 32.203 138.473 32.8551C138.528 34.2561 138.718 35.7912 137.355 36.6743C136.166 37.4419 135.179 38.433 133.752 38.4516L127.622 38.5224C127.373 38.5224 126.638 38.3883 126.504 38.638C126.169 39.2826 125.834 39.9235 125.502 40.5681L123.218 44.9201L123.244 44.9648H135.033L137.317 40.5681L138.324 38.638C138.45 38.3883 139.188 38.5262 139.441 38.5224L145.574 38.4516C147.002 38.4516 148.749 38.3175 149.71 37.2817C150.519 36.4097 150.396 35.4186 150.02 33.8648C149.871 33.2277 149.729 32.1322 149.96 31.4429C150.061 31.1073 150.281 30.8199 150.579 30.6343C151.324 30.1387 151.391 29.6432 150.519 29.2072C150.363 29.129 150.556 28.7489 150.713 28.6446C150.944 28.4918 151.655 28.231 151.726 27.9664C152.132 26.476 150.705 27.1579 151.328 25.4811C151.756 24.3186 154.99 23.9907 155.236 23.3051C155.445 22.7462 155.49 22.586 155.21 22.0755" fill="#2BACE2"></path><path d="M33.233 18.2228V25.1421C33.233 36.4434 30.3825 38.7833 16.7972 38.7833C4.57936 38.7833 0 36.6483 0 23.7188V14.9662C0 2.24159 4.9855 0.0022157 16.7972 0.0022157C26.1124 0.0022157 33.4379 -0.456093 33.192 11.8102H25.9038C25.9038 6.22106 23.1539 6.26204 16.7972 6.26204C8.2272 6.26204 7.42982 7.5848 7.32921 14.9662V23.7188C7.42982 31.7112 8.65197 32.5235 16.7972 32.5235C23.7687 32.5235 25.9038 32.3707 25.9038 25.1421V23.7672H16.2867V18.2228H33.233Z" fill="#231F20"></path><path d="M45.2869 15.8828L58.0227 0.307739H67.0324L51.5617 18.9345L68.6085 38.4778H59.3454L45.2869 22.1426L45.2795 38.4778H37.9503V0.307739H45.2795L45.2869 15.8828Z" fill="#231F20"></path><path d="M71.526 38.4778V0.307739H90.5067C97.9887 0.307739 101.759 1.83543 101.759 10.234C101.759 14.6085 100.943 17.5595 96.3119 18.6811V18.8823C101.655 19.4934 102.672 23.0071 102.672 27.8249C102.672 36.2757 99.2108 38.4629 91.1699 38.4629H71.526V38.4778ZM78.8552 16.274H89.3889C93.5136 16.274 94.4303 14.9997 94.4303 10.9308C94.4303 6.86193 92.7982 6.55266 89.1877 6.55266H78.8552V16.274ZM78.8552 32.2031H88.8784C93.2603 32.2031 95.3431 31.8975 95.3431 27.2175C95.3431 23.0443 94.4303 21.8222 90.1005 21.8222H78.8552V32.2031Z" fill="#231F20"></path></svg> 