<?xml version="1.0" encoding="UTF-8"?> <svg xmlns="http://www.w3.org/2000/svg" xmlns:xlink="http://www.w3.org/1999/xlink" version="1.1" id="icons--vlag-engels" x="0px" y="0px" viewBox="0 0 153.4 79.8" style="enable-background:new 0 0 153.4 79.8;" xml:space="preserve"> <style type="text/css"> .st0{fill:#E60004;} .st1{fill:#060403;} </style> <g> <path class="st0" d="M22.3,31h7.6l-1.4,9.3C13.2,47.7,6.6,32.2,7.2,24.7H0c0.5,8.6,3.5,14.7,7.7,18.7c0.5,0.5,1,0.9,1.6,1.3 c7.8,6.1,18.8,5.6,24.9,0l3-20.1H23.2L22.3,31L22.3,31z M49.2,24.5c-0.4-0.1-0.8-0.1-1.1-0.1c-2.2,0-4.1,2.3-4.5,3.7h-0.1l0.5-3.3 h-3.3l-2,14.6h3.8l0.8-5.4c0.3-2.1,0.8-6,3.9-6c0.7,0,1.3,0.1,1.6,0.3L49.2,24.5L49.2,24.5z M57.4,24.4c-4.3,0-7.9,2.9-8.6,7.7 c-0.6,4.2,1.7,7.5,6.5,7.5c4.8,0,8-3.3,8.6-7.5C64.5,27.4,61.7,24.4,57.4,24.4L57.4,24.4z M60,31.7c-0.3,2.4-1.5,5.1-4.3,5.1 c-2.9,0-3.2-2.6-2.9-5.1c0.3-2.2,1.8-4.3,4.2-4.3C59.4,27.4,60.3,29.5,60,31.7L60,31.7z M76,24.4c-2,0-3.6,0.6-5.1,2.3h-0.1l0.3-2 h-3.6l-2,14.6h3.8l1-7.2c0.3-1.9,1.3-4.9,4-4.9c2.4,0,2.1,2.4,1.8,4.2L75,39.4h3.8l1.3-9.2C80.5,26.9,79.4,24.4,76,24.4L76,24.4z M84,27.8l-1.6,11.6h3.8l1.2-8.9C86.4,29.6,85.1,28.6,84,27.8L84,27.8z"></path> <path class="st1" d="M40.9,5.3l0.3-1.9C30.3-1,21.5-1.1,15.1,3.1C9.3,7,6.9,13.8,6.7,17.7h1.9c0.3-3.1,2.2-9.4,7.6-12.9 C22.1,0.8,30.4,1,40.9,5.3L40.9,5.3z M96.7,42.8c7.4,10.5,9.4,20.4,5.4,26.9c-2.1,3.5-5.8,6-10.9,7.2c-12.9,3.2-32.1-1.6-50.1-12.6 C33.9,60,26.9,53.9,23.4,50.6c-1,0-2,0-2.9-0.1c2.5,2.4,10.9,10.2,19.7,15.5c18.4,11.2,38.2,16.1,51.5,12.8 c5.5-1.4,9.7-4.2,12.1-8.1c4.2-7,2.5-17.1-4.7-27.9L96.7,42.8L96.7,42.8z M99.3,39.4h3.8l1.3-9.2c0.5-3.3-0.7-5.7-4.1-5.7 c-2,0-3.6,0.6-5.1,2.3h-0.1l0.3-2h-3.6l-2,14.6h3.7l1-7.2c0.3-1.9,1.3-4.9,4-4.9c2.4,0,2.1,2.4,1.8,4.2L99.3,39.4L99.3,39.4z M118.1,26.8L118.1,26.8c-0.9-1.7-2.2-2.3-4.2-2.3c-4.3,0-6.7,4.1-7.2,7.6c-0.6,3.9,0.6,7.4,4.8,7.4c2.1,0,3.9-1.1,4.8-2.3h0.1 c-0.4,2.5-1,5.7-5.1,5.7c-1.2,0-3-0.7-4-1.3l-0.8,3.2c1.7,0.8,3.4,1,4.8,1c6,0,8.1-3.7,8.7-7.7l1.8-13.2h-3.6L118.1,26.8 L118.1,26.8z M117.2,31.9c-0.3,2.4-1.6,4.5-3.9,4.5c-2.2,0-2.8-2.4-2.6-4.4c0.3-2.2,1.5-4.6,4-4.6 C116.9,27.4,117.5,29.4,117.2,31.9L117.2,31.9z M131.3,24.4c-4.5,0-7.2,3.5-7.8,7.7c-0.7,4.8,1.7,7.6,6.5,7.6c2,0,3.6-0.4,5.1-1.2 l0.4-3.1c-1.5,0.8-3.2,1.5-5,1.5c-2.3,0-3.8-1.3-3.6-3.7h10C137.7,28.2,136.7,24.4,131.3,24.4L131.3,24.4z M133.7,30.6h-6.4 c0.4-2,1.7-3.4,3.8-3.4S133.9,28.8,133.7,30.6L133.7,30.6z M149.2,24.4c-2,0-3.6,0.6-5.1,2.3h-0.1l0.3-2h-3.6l-2,14.6h3.8l1-7.2 c0.3-1.9,1.3-4.9,4-4.9c2.4,0,2.1,2.4,1.8,4.2l-1.1,7.8h3.8l1.3-9.2C153.8,26.9,152.6,24.4,149.2,24.4L149.2,24.4z M48,17.3 c1.9,0,3-0.3,3.7-0.5l0.9-6.3h-4.2l-0.2,1.4h2.5l-0.5,3.7c-0.4,0.1-0.8,0.2-1.9,0.2c-2.5,0-4.2-1.9-3.8-4.7 c0.4-2.7,2.5-4.7,5.2-4.7c1.5,0,2.4,0.3,3.2,0.8l0.4-1.7c-0.9-0.3-1.7-0.6-3.4-0.6c-3.6,0-6.6,2.5-7.2,6.2 C42.1,14.9,44.3,17.3,48,17.3L48,17.3z M99.5,13c0.3-2.1,1.3-3.6,3.2-3.6c1.4,0.1,1.7,1.1,1.4,3.1l-0.6,4.6h1.6l0.7-5.2 c0.3-2.4-0.5-3.8-2.7-3.8c-1.2,0-2.5,0.6-3.1,1.6h0l0.2-1.4h-1.6l-1.2,8.8h1.6L99.5,13L99.5,13z M108.6,14.8 c-0.2,1.8,0.7,2.6,2.3,2.6c0.5,0,1-0.1,1.4-0.2l0.2-1.4c-0.3,0.2-0.6,0.3-1.1,0.3c-0.7,0-1.3-0.6-1.1-1.6l0.7-4.8h2.3l0.2-1.3h-2.3 l0.4-2.6l-1.7,0.5l-0.3,2h-2l-0.2,1.3h2L108.6,14.8L108.6,14.8z M91.9,17.3c1.4,0,2.2-0.3,2.8-0.6l0.2-1.6 c-0.4,0.3-1.7,0.9-2.8,0.9c-1.5,0-2.7-1.2-2.5-2.9h6.2c0.4-2.8-0.2-5-3.1-5c-2.5,0-4.3,1.9-4.7,4.5C87.7,15.4,88.8,17.3,91.9,17.3 L91.9,17.3z M92.6,9.4c1.4,0,2,1.1,1.8,2.5h-4.5C90.2,10.7,91,9.4,92.6,9.4z M82.6,17.3c1.4,0,2.2-0.3,2.8-0.6l0.2-1.6 c-0.4,0.3-1.7,0.9-2.8,0.9c-1.5,0-2.7-1.2-2.5-2.9h6.2c0.4-2.8-0.2-5-3.1-5c-2.5,0-4.3,1.9-4.7,4.5C78.4,15.4,79.5,17.3,82.6,17.3 L82.6,17.3z M83.2,9.4c1.4,0,2,1.1,1.8,2.5h-4.5C80.8,10.7,81.7,9.4,83.2,9.4z M58.3,17.3c1.4,0,2.2-0.3,2.8-0.6l0.2-1.6 c-0.4,0.3-1.7,0.9-2.8,0.9c-1.5,0-2.7-1.2-2.5-2.9h6.2c0.4-2.8-0.2-5-3.1-5c-2.5,0-4.3,1.9-4.7,4.5C54.1,15.4,55.2,17.3,58.3,17.3 L58.3,17.3z M58.9,9.4c1.4,0,2,1.1,1.8,2.5h-4.5C56.5,10.7,57.4,9.4,58.9,9.4L58.9,9.4z M65.9,12.7c0.2-1.6,1.1-3.3,2.7-3.3 c1.3,0,1.4,1.4,1.2,2.5l-0.7,5.3h1.6l0.6-4.4c0.2-1.6,1.1-3.3,2.7-3.3c1.3,0,1.4,1.4,1.2,2.5l-0.7,5.3h1.6l0.8-5.7 c0.3-1.9-0.3-3.4-2.5-3.4c-0.8,0-2.2,0.4-2.9,1.7c-0.3-1.2-1.2-1.7-2.2-1.7c-1.3,0-2.2,0.5-3,1.5h0l0.2-1.3h-1.5l-1.2,8.8h1.6 L65.9,12.7L65.9,12.7z M118.8,8.1c-2.5,0-4.3,1.9-4.7,4.5c-0.4,2.9,0.8,4.8,3.8,4.8c1.4,0,2.2-0.3,2.8-0.6l0.2-1.6 c-0.4,0.3-1.7,0.9-2.8,0.9c-1.5,0-2.7-1.2-2.5-2.9h6.2C122.3,10.2,121.7,8.1,118.8,8.1L118.8,8.1z M120.4,11.9h-4.5 c0.3-1.1,1.1-2.5,2.7-2.5C120,9.4,120.6,10.5,120.4,11.9L120.4,11.9z M84,27.8c1,0.8,2.3,1.8,3.4,2.7l0.8-5.7h-3.8L84,27.8L84,27.8 z"></path> </g> </svg> 