<?xml version="1.0" encoding="UTF-8"?> <!-- Generator: Adobe Illustrator 26.2.1, SVG Export Plug-In . SVG Version: 6.00 Build 0) --> <svg xmlns="http://www.w3.org/2000/svg" xmlns:xlink="http://www.w3.org/1999/xlink" version="1.1" id="Laag_1" x="0px" y="0px" viewBox="0 0 272.1 272.1" style="enable-background:new 0 0 272.1 272.1;" xml:space="preserve"> <style type="text/css"> .st0{fill:#FFFFFF;} .st1{fill:#3F2362;} .st2{fill:#B9DAA5;} .st3{fill:#8AC16A;} </style> <circle class="st0" cx="135.3" cy="136.1" r="135.3"></circle> <g> <path class="st1" d="M43.4,145.1c10-22.1,32.3-37.5,58.1-37.5c7.6,0,15,1.3,21.8,3.8c-18.4,3.2-35.1,11.6-48.4,23.6 C63.6,136.2,52.9,139.7,43.4,145.1z"></path> <path class="st1" d="M43.4,197.5c-3.6-8-5.6-16.8-5.6-26.2s2-18.3,5.7-26.3c9.5-5.4,20.1-8.9,31.5-10 C57.5,150.8,45.8,172.8,43.4,197.5z"></path> <path class="st1" d="M165.3,171.4c0,8.1-1.5,15.8-4.2,22.9c-9.3-34.4-40.6-59.6-77.9-59.6c-2.8,0-5.5,0.1-8.2,0.4 c13.3-12,30-20.4,48.4-23.6C147.8,120.3,165.3,143.8,165.3,171.4z"></path> <path class="st2" d="M74.9,135c2.7-0.3,5.5-0.4,8.2-0.4c37.3,0,68.7,25.3,77.9,59.6c-9.2,23.9-32.4,40.9-59.5,40.9 c-25.9,0-48.2-15.4-58.2-37.6C45.8,172.8,57.5,150.8,74.9,135z"></path> </g> <path class="st3" d="M157.5,95.3L140.2,130c-0.9,1.7,1,3.5,2.7,2.7l34.7-17.3c1.2-0.6,1.5-2.2,0.5-3.2l-17.3-17.3 C159.8,93.9,158.2,94.1,157.5,95.3z"></path> <circle class="st3" cx="208.4" cy="64.5" r="63.8"></circle> <g> <path class="st0" d="M204.1,72.2c0-16.8,18.7-12,18.7-26.2c0-8.4-5.8-12.7-15-12.7c-9.5,0-14.5,5.3-14.5,14.4H185 c0-14,9.1-22.3,22.6-22.3c13.2,0,23.5,7.3,23.5,20.6c0,19.3-19,16.8-19,26.2v8.4h-8V72.2z M201.7,96.6c0-3.7,2.9-6.7,6.8-6.7 c3.7,0,6.7,3,6.7,6.7c0,3.8-3,6.9-6.7,6.9S201.7,100.4,201.7,96.6z"></path> </g> <circle class="st0" cx="85.4" cy="175.7" r="7"></circle> <circle class="st0" cx="119.7" cy="175.7" r="7"></circle> </svg> 